<svg width="96" height="100" viewBox="0 0 96 100" fill="none" xmlns="http://www.w3.org/2000/svg">
<path d="M83.4515 24.7158V33.0807H87.634V49.8105C87.634 53.1383 86.312 56.3297 83.959 58.6828C81.6059 61.0359 78.4144 62.3578 75.0867 62.3578C71.7589 62.3578 68.5674 61.0359 66.2144 58.6828C63.8613 56.3297 62.5393 53.1383 62.5393 49.8105V33.0807H66.7218V24.7158H54.1744V49.8105C54.1823 54.6286 55.8503 59.2968 58.8975 63.0289C61.9447 66.761 66.185 69.329 70.9042 70.3003V74.9052C70.9042 79.3422 69.1416 83.5975 66.0042 86.7349C62.8667 89.8723 58.6114 91.6349 54.1744 91.6349C49.7374 91.6349 45.4821 89.8723 42.3447 86.7349C39.2073 83.5975 37.4447 79.3422 37.4447 74.9052V65.7707C40.2352 64.7841 42.5872 62.8427 44.0848 60.2897C45.5825 57.7367 46.1294 54.7364 45.6288 51.8192C45.1283 48.9019 43.6126 46.2556 41.3496 44.3478C39.0866 42.44 36.2221 41.3936 33.2622 41.3936C30.3023 41.3936 27.4378 42.44 25.1748 44.3478C22.9118 46.2556 21.3961 48.9019 20.8956 51.8192C20.3951 54.7364 20.9419 57.7367 22.4396 60.2897C23.9372 62.8427 26.2892 64.7841 29.0798 65.7707V74.9052C29.0798 81.5607 31.7237 87.9436 36.4298 92.6498C41.136 97.3559 47.5189 99.9998 54.1744 99.9998C60.83 99.9998 67.2129 97.3559 71.919 92.6498C76.6252 87.9436 79.2691 81.5607 79.2691 74.9052V70.3003C83.9883 69.329 88.2286 66.761 91.2758 63.0289C94.3231 59.2968 95.9911 54.6286 95.9989 49.8105V24.7158H83.4515ZM33.2622 49.8105C34.0894 49.8105 34.8981 50.0558 35.5858 50.5154C36.2736 50.9749 36.8097 51.6281 37.1263 52.3924C37.4428 53.1566 37.5257 53.9976 37.3643 54.8089C37.2029 55.6202 36.8046 56.3655 36.2196 56.9504C35.6347 57.5353 34.8895 57.9336 34.0782 58.095C33.2668 58.2564 32.4259 58.1736 31.6617 57.857C30.8974 57.5405 30.2442 57.0044 29.7846 56.3166C29.3251 55.6288 29.0798 54.8201 29.0798 53.9929C29.0798 52.8837 29.5204 51.8199 30.3048 51.0355C31.0891 50.2511 32.153 49.8105 33.2622 49.8105Z" fill="#9F63FF"/>
<path d="M63.9764 5.81604H52.3444V0H46.5283V5.81604H23.2642V0H17.4481V5.81604H5.81604C4.27353 5.81604 2.7942 6.4288 1.70348 7.51952C0.612759 8.61024 0 10.0896 0 11.6321V69.7925C0 71.335 0.612759 72.8143 1.70348 73.905C2.7942 74.9958 4.27353 75.6085 5.81604 75.6085H17.4481V69.7925H5.81604V11.6321H17.4481V17.4481H23.2642V11.6321H46.5283V17.4481H52.3444V11.6321H63.9764V23.2642H69.7925V11.6321C69.7925 10.0896 69.1797 8.61024 68.089 7.51952C66.9983 6.4288 65.519 5.81604 63.9764 5.81604Z" fill="#9F63FF"/>
</svg>
