<svg width="96" height="90" viewBox="0 0 96 90" fill="none" xmlns="http://www.w3.org/2000/svg">
<path d="M20.7909 90H43.2058L44.9857 81.9998H55.0092L56.7891 90H79.2039L81.7318 78.6277C96.331 66.3833 100.491 45.0667 90.6353 27.9942C89.7287 26.4342 88.7421 24.9568 87.6755 23.5621C87.8888 22.3994 87.9954 21.2114 87.9954 19.998C87.9949 15.7965 86.6713 11.7018 84.2125 8.29499C81.7537 4.88819 78.2846 2.34231 74.2973 1.01858C70.3101 -0.305149 66.0072 -0.33949 61.9994 0.92043C57.9915 2.18035 54.4822 4.67054 51.9693 8.03765C46.5936 8.37366 41.1699 9.6457 35.9501 11.8538L32.2703 13.4138L35.3822 20.778L39.066 19.218C42.0305 17.9593 45.1311 17.0492 48.3055 16.5059C48.1002 17.6419 47.9975 18.806 47.9975 19.998C47.9974 24.1727 49.3036 28.2427 51.7328 31.6377C54.1621 35.0326 57.5926 37.5823 61.5437 38.9293C65.4948 40.2762 69.7683 40.353 73.7652 39.1488C77.7621 37.9446 81.2821 35.5199 83.8317 32.2143C87.6198 38.8939 88.8799 46.7131 87.3819 54.2447C85.884 61.7763 81.7278 68.5181 75.6721 73.2395L74.5401 74.1235L72.7882 82.0038H63.2047L61.4288 74.0035H38.566L36.7901 82.0038H27.2066L24.5307 69.9634L22.5268 69.1954C18.2711 67.5634 12.2754 64.1153 7.99959 60.2752V41.9986H12.2634L20.4509 28.3582L17.7791 21.674C21.0029 22.0901 24.7187 23.6781 28.1825 27.4902L30.8744 30.4503L36.7941 25.0661L34.1022 22.1061C26.5306 13.7778 17.4231 12.6258 11.0954 14.1018L6.55566 15.1579L11.5474 27.6382L7.7356 33.9984H0V63.6632L1.17994 64.8353C5.7797 69.4114 12.3594 73.4755 17.6391 75.8236L20.7909 90ZM21.9989 45.9987H30.0144V37.9745H21.9989V45.9987ZM67.9965 31.9983C64.814 31.9983 61.762 30.734 59.5116 28.4835C57.2613 26.233 55.9971 23.1807 55.9971 19.998C55.9971 16.8153 57.2613 13.763 59.5116 11.5125C61.762 9.26197 64.814 7.99765 67.9965 7.99765C71.1789 7.99765 74.231 9.26197 76.4813 11.5125C78.7316 13.763 79.9959 16.8153 79.9959 19.998C79.9959 23.1807 78.7316 26.233 76.4813 28.4835C74.231 30.734 71.1789 31.9983 67.9965 31.9983Z" fill="#9F63FF"/>
</svg>
