<svg width="96" height="92" viewBox="0 0 96 92" fill="none" xmlns="http://www.w3.org/2000/svg">
<path d="M12 43.5789C8.64 43.5789 5.8 42.4088 3.48 40.0684C1.16 37.7281 0 34.8632 0 31.4737C0 28.0842 1.16 25.2193 3.48 22.8789C5.8 20.5386 8.64 19.3684 12 19.3684C15.36 19.3684 18.2 20.5386 20.52 22.8789C22.84 25.2193 24 28.0842 24 31.4737C24 34.8632 22.84 37.7281 20.52 40.0684C18.2 42.4088 15.36 43.5789 12 43.5789ZM33.6 24.2105C30.24 24.2105 27.4 23.0403 25.08 20.7C22.76 18.3596 21.6 15.4947 21.6 12.1053C21.6 8.71579 22.76 5.85088 25.08 3.51053C27.4 1.17017 30.24 0 33.6 0C36.96 0 39.8 1.17017 42.12 3.51053C44.44 5.85088 45.6 8.71579 45.6 12.1053C45.6 15.4947 44.44 18.3596 42.12 20.7C39.8 23.0403 36.96 24.2105 33.6 24.2105ZM62.4 24.2105C59.04 24.2105 56.2 23.0403 53.88 20.7C51.56 18.3596 50.4 15.4947 50.4 12.1053C50.4 8.71579 51.56 5.85088 53.88 3.51053C56.2 1.17017 59.04 0 62.4 0C65.76 0 68.6 1.17017 70.92 3.51053C73.24 5.85088 74.4 8.71579 74.4 12.1053C74.4 15.4947 73.24 18.3596 70.92 20.7C68.6 23.0403 65.76 24.2105 62.4 24.2105ZM84 43.5789C80.64 43.5789 77.8 42.4088 75.48 40.0684C73.16 37.7281 72 34.8632 72 31.4737C72 28.0842 73.16 25.2193 75.48 22.8789C77.8 20.5386 80.64 19.3684 84 19.3684C87.36 19.3684 90.2 20.5386 92.52 22.8789C94.84 25.2193 96 28.0842 96 31.4737C96 34.8632 94.84 37.7281 92.52 40.0684C90.2 42.4088 87.36 43.5789 84 43.5789ZM22.32 92C18.72 92 15.6992 90.6087 13.2576 87.8261C10.816 85.0435 9.5968 81.7541 9.6 77.9579C9.6 73.7614 11.0208 70.0895 13.8624 66.9421C16.704 63.7947 19.5232 60.6877 22.32 57.621C24.64 55.1193 26.64 52.3964 28.32 49.4524C30 46.5084 32 43.7436 34.32 41.1579C36.08 39.0596 38.12 37.3246 40.44 35.9526C42.76 34.5807 45.28 33.8947 48 33.8947C50.72 33.8947 53.24 34.5403 55.56 35.8316C57.88 37.1228 59.92 38.8175 61.68 40.9158C63.92 43.4982 65.9008 46.2825 67.6224 49.2684C69.344 52.2544 71.3632 55.0386 73.68 57.621C76.48 60.6877 79.2992 63.7947 82.1376 66.9421C84.976 70.0895 86.3968 73.7614 86.4 77.9579C86.4 81.7509 85.1792 85.0403 82.7376 87.8261C80.296 90.6119 77.2768 92.0032 73.68 92C69.36 92 65.08 91.6368 60.84 90.9105C56.6 90.1842 52.32 89.821 48 89.821C43.68 89.821 39.4 90.1842 35.16 90.9105C30.92 91.6368 26.64 92 22.32 92Z" fill="#9F63FF"/>
</svg>
