<svg width="96" height="112" viewBox="0 0 96 112" fill="none" xmlns="http://www.w3.org/2000/svg">
<path d="M16 35.9962C16 27.5089 19.3714 19.3692 25.3726 13.3677C31.3737 7.36624 39.5131 3.99465 48 3.99465C56.4869 3.99465 64.6263 7.36624 70.6274 13.3677C76.6286 19.3692 80 27.5089 80 35.9962C80 36.5267 80.2107 37.0354 80.5858 37.4105C80.9609 37.7856 81.4696 37.9963 82 37.9963C82.5304 37.9963 83.0391 37.7856 83.4142 37.4105C83.7893 37.0354 84 36.5267 84 35.9962C83.9989 29.1891 82.0681 22.5217 78.4315 16.7675C74.7949 11.0133 69.6016 6.40804 63.4538 3.48591C57.3061 0.563785 50.456 -0.555456 43.6979 0.258011C36.9399 1.07148 30.551 3.78432 25.2722 8.08186C19.9934 12.3794 16.0411 18.0855 13.8737 24.5384C11.7063 30.9912 11.4127 37.9263 13.0269 44.5393C14.6411 51.1523 18.0969 57.1721 22.9935 61.9005C27.8902 66.6289 34.0269 69.8721 40.692 71.254C41.4796 73.0204 42.8805 74.4417 44.6353 75.2548C46.3901 76.0679 48.38 76.2178 50.2368 75.6767C52.0936 75.1355 53.6915 73.94 54.7347 72.3115C55.778 70.6829 56.196 68.7315 55.9114 66.8185C55.6268 64.9054 54.6589 63.1602 53.1867 61.9059C51.7146 60.6516 49.8379 59.9731 47.904 59.9959C45.9701 60.0188 44.11 60.7415 42.6679 62.0302C41.2258 63.319 40.2993 65.0865 40.06 67.0058C33.1759 65.2424 27.0745 61.2376 22.7181 55.6229C18.3617 50.0081 15.9981 43.103 16 35.9962ZM48 15.9952C42.6957 15.9952 37.6086 18.1025 33.8579 21.8534C30.1071 25.6043 28 30.6916 28 35.9962C28 41.3008 30.1071 46.3882 33.8579 50.1391C37.6086 53.89 42.6957 55.9972 48 55.9972C45.092 55.9972 42.428 57.0333 40.348 58.7534C34.9516 56.9385 30.3762 53.2643 27.4388 48.387C24.5015 43.5097 23.3936 37.7469 24.313 32.128C25.2325 26.5092 28.1194 21.4002 32.4581 17.7136C36.7968 14.027 42.3047 12.0029 47.998 12.0029C53.6913 12.0029 59.1992 14.027 63.5379 17.7136C67.8766 21.4002 70.7635 26.5092 71.683 32.128C72.6024 37.7469 71.4945 43.5097 68.5572 48.387C65.6198 53.2643 61.0444 56.9385 55.648 58.7534C53.497 56.9728 50.7923 55.9981 48 55.9972C53.3043 55.9972 58.3914 53.89 62.1421 50.1391C65.8929 46.3882 68 41.3008 68 35.9962C68 30.6916 65.8929 25.6043 62.1421 21.8534C58.3914 18.1025 53.3043 15.9952 48 15.9952ZM82 67.9978H60C60 66.5977 59.76 65.2497 59.32 63.9976H82C85.713 63.9976 89.274 65.4727 91.8995 68.0983C94.525 70.724 96 74.2851 96 77.9983V80.6664C96 89.2669 84.936 112 48 112C11.064 112 0 89.2629 0 80.6664V77.9983C0 74.2851 1.475 70.724 4.10051 68.0983C6.72602 65.4727 10.287 63.9976 14 63.9976H19.436C20.8547 65.4457 22.3747 66.7791 23.996 67.9978H14C11.3478 67.9978 8.8043 69.0514 6.92893 70.9269C5.05357 72.8024 4 75.346 4 77.9983V80.6664C4 86.7347 12.936 108 48 108C83.064 108 92 86.7347 92 80.6664V77.9983C92 75.346 90.9464 72.8024 89.0711 70.9269C87.1957 69.0514 84.6522 67.9978 82 67.9978Z" fill="#9F63FF"/>
</svg>
