<svg width="119" height="118" viewBox="0 0 119 118" fill="none" xmlns="http://www.w3.org/2000/svg">
<path d="M102.563 10.9921C99.7123 8.82988 96.527 7.92328 93.3514 8.37378L93.3092 8.38079C91.8712 8.59878 90.4869 9.08464 89.228 9.81317L89.0895 9.89318C83.2423 13.3874 80.1145 21.877 81.3096 31.0178C82.177 37.706 85.2673 43.6536 89.5772 46.928C92.427 49.0937 95.6167 49.9978 98.8032 49.541L98.8376 49.5356C100.276 49.3176 101.66 48.8317 102.919 48.1032C108.874 44.6652 112.064 36.1394 110.869 26.8687C109.977 20.2033 106.876 14.2675 102.563 10.9921ZM97.3553 56.3995C92.7734 56.3195 88.4414 56.2423 84.3357 53.9817C72.9905 47.713 66.1408 43.9301 56.9661 49.2271C47.7915 54.524 47.6341 62.3525 47.3773 75.3197C47.2804 80.0124 45.176 83.8085 42.9485 87.8315C40.3934 92.4422 37.7533 97.2058 38.7684 102.995C39.0849 105.11 39.804 107.145 40.887 108.989C45.3814 116.774 55.1011 119.607 62.55 115.306C66.3935 113.087 69.715 109.394 73.2297 105.485C76.6089 101.727 80.1026 97.8419 83.8227 95.6941C87.5428 93.5463 92.6434 92.4694 97.5727 91.4309C102.701 90.3377 107.541 89.3191 111.396 87.0938C118.834 82.7995 121.229 72.9715 116.735 65.1871C115.671 63.3299 114.26 61.6939 112.581 60.3675C108.072 56.5897 102.624 56.4933 97.3553 56.3995ZM29.6189 54.8676C34.0622 56.6128 38.3596 56.505 41.7202 54.5647C42.1789 54.2997 42.6174 54.0012 43.0321 53.6716C49.4463 48.5941 48.8757 37.5193 41.7239 28.4425C38.72 24.6248 34.8786 21.6718 30.9231 20.1214C26.4879 18.3802 22.1875 18.4927 18.829 20.4317C18.3703 20.6967 17.9318 20.9952 17.5171 21.3249C11.1029 26.4024 11.6735 37.4772 18.8253 46.5539C21.8232 50.3664 25.6622 53.3151 29.6189 54.8676ZM67.7844 39.3809C68.2772 39.1865 68.755 38.956 69.2138 38.6913C72.5766 36.7498 74.8165 33.0833 75.5268 28.3627C76.1584 24.161 75.5156 19.3671 73.719 14.8552C69.4367 4.12755 60.131 -1.90403 52.5241 1.10773C52.0313 1.30207 51.5535 1.53255 51.0947 1.79732C47.7387 3.74067 45.4911 7.40869 44.7814 12.1203C44.1463 16.3211 44.783 21.1244 46.592 25.6377C50.8743 36.3654 60.18 42.397 67.7844 39.3809ZM36.2976 85.6431L36.3217 85.6148C38.3061 83.0861 39.1171 79.8751 38.6655 76.3276C37.9798 70.9493 34.38 65.3044 29.026 61.2066C21.6149 55.5363 12.637 54.033 6.68874 57.4672C5.42806 58.1927 4.31504 59.1487 3.40768 60.2855L3.38362 60.3138C1.40067 62.83 0.5947 66.0497 1.04623 69.5972C1.732 74.9755 5.33173 80.6204 10.6858 84.7182C18.0969 90.3885 27.0748 91.8918 33.023 88.4575C34.281 87.7326 35.3918 86.7779 36.2976 85.6431Z" fill="#06791F"/>
</svg>
