<svg width="117" height="113" viewBox="0 0 117 113" fill="none" xmlns="http://www.w3.org/2000/svg">
<path fill-rule="evenodd" clip-rule="evenodd" d="M79.9698 28.0836C73.2192 23.3127 72.0367 23.5536 68.5428 21.0843C65.6327 19.0276 61.945 5.70336 57.5799 2.61839C53.2148 -0.466582 46.2957 -1.49585 41.0436 5.93558L34.9836 14.5103C33.4026 16.7668 29.3406 24.2369 33.836 24.6504C26.9029 26.4571 22.8366 31.4076 19.3186 36.4918C18.0946 36.0656 16.8232 35.6677 15.5728 35.2983C11.6966 34.1635 7.42199 33.186 5.24527 33.1014C4.13428 33.0564 3.04984 33.4551 2.23054 34.2096C1.41124 34.9642 0.924178 36.0128 0.876506 37.1249C0.828834 38.237 1.22446 39.3214 1.97634 40.1396C2.72823 40.9577 3.77478 41.4426 4.88578 41.4876C5.92377 41.5286 9.30565 42.2112 13.1988 43.3511L14.4811 43.7431C13.2915 45.8716 12.5329 48.0578 12.1494 50.2554L11.9979 50.2375C9.42964 49.9036 6.89159 49.8174 5.27711 49.7598L4.52251 49.734C3.41152 49.689 2.32709 50.0877 1.50778 50.8422C0.688479 51.5968 0.201424 52.6454 0.153752 53.7575C0.106081 54.8696 0.501697 55.954 1.25358 56.7722C2.00547 57.5903 3.05202 58.0752 4.16302 58.1202L5.0385 58.1492C6.67313 58.2073 8.76793 58.282 10.9096 58.5613C11.4124 58.624 11.8886 58.6954 12.3382 58.7754C14.9836 71.7745 27.4586 84.1911 36.0337 90.2515C44.6089 96.3118 60.4775 103.927 73.614 102.081C73.8365 102.476 74.0627 102.901 74.2928 103.356C75.271 105.282 76.0406 107.232 76.641 108.753L76.9606 109.569C77.3738 110.601 78.1803 111.426 79.2025 111.861C80.2247 112.297 81.379 112.308 82.4113 111.892C83.4437 111.476 84.2697 110.666 84.7075 109.642C85.1452 108.618 85.159 107.463 84.7458 106.43L84.4695 105.728C83.6676 103.628 82.7688 101.568 81.7759 99.5519L81.7084 99.4151C83.6519 98.32 85.4596 96.8752 87.0689 95.0432L87.8664 96.1212C90.2405 99.4105 92.0128 102.371 92.4025 103.339C92.835 104.343 93.6428 105.137 94.6537 105.553C95.6647 105.968 96.7986 105.971 97.8137 105.561C98.8289 105.151 99.6448 104.361 100.087 103.359C100.53 102.357 100.564 101.222 100.183 100.197C99.3768 98.1735 97.0285 94.4704 94.6694 91.1985C93.9004 90.1343 93.1079 89.0873 92.2927 88.0582C95.9156 83.0481 99.2169 77.5639 98.6012 70.4222C100.492 74.5217 106.186 68.2055 107.784 65.9542L113.841 57.384C119.093 49.9526 115.818 43.7772 111.448 40.689C107.083 37.604 93.2921 38.5755 90.3866 36.5221C86.8881 34.0496 86.7205 32.8545 79.9698 28.0836ZM47.1758 67.9535C48.3202 68.2891 49.5105 68.9178 50.5778 69.6721C51.6452 70.4264 52.6351 71.3387 53.338 72.3086C53.6843 72.7864 54.0571 73.4202 54.2718 74.1617C54.4286 74.6558 54.4726 75.1791 54.4005 75.6931C54.3285 76.2071 54.1422 76.6986 53.8554 77.1315C53.112 78.1833 51.9609 78.467 51.1949 78.5153C50.4289 78.5637 49.6979 78.4174 49.1364 78.2537C47.9875 77.9149 46.7971 77.2862 45.7298 76.5319C44.6625 75.7776 43.6725 74.8654 42.9742 73.8987C42.5582 73.338 42.2409 72.7102 42.0359 72.0424C41.8791 71.5482 41.835 71.0249 41.9071 70.5109C41.9792 69.997 42.1655 69.5054 42.4523 69.0725C43.1956 68.0207 44.3468 67.7371 45.1128 67.6887C45.8788 67.6403 46.6143 67.7899 47.1758 67.9535ZM70.1718 62.9478C71.5336 62.3467 73.6397 61.9699 75.4824 63.2723C77.3252 64.5746 77.6776 66.6889 77.561 68.17C77.4363 69.7207 76.8156 71.257 75.8913 72.5649C74.9669 73.8728 73.7292 74.9661 72.3122 75.5968C70.9518 76.2057 68.8411 76.5792 66.9984 75.2769C65.1556 73.9745 64.8078 71.8635 64.9198 70.3792C65.0757 68.7944 65.651 67.2789 66.5863 65.9888C67.5107 64.6809 68.7517 63.583 70.1686 62.9523M42.9835 43.7397C44.3453 43.1387 46.4514 42.7619 48.2942 44.0643C50.1369 45.3666 50.4893 47.4809 50.3728 48.962C50.248 50.5127 49.6273 52.049 48.703 53.3569C47.7786 54.6648 46.5409 55.7581 45.124 56.3888C43.7635 56.9977 41.6528 57.3712 39.8101 56.0689C37.9674 54.7665 37.6195 52.6555 37.7315 51.1712C37.8874 49.5864 38.4627 48.0709 39.398 46.7808C40.3224 45.4729 41.5666 44.3704 42.9835 43.7397Z" fill="#06791F"/>
</svg>
