<svg width="42" height="43" viewBox="0 0 42 43" fill="none" xmlns="http://www.w3.org/2000/svg">
<path d="M35.9426 4.73536C34.9355 3.96238 33.8139 3.6334 32.699 3.78519L32.6842 3.78757C32.1794 3.86126 31.6941 4.02998 31.2535 4.28498L31.205 4.31298C29.1588 5.53647 28.0805 8.53623 28.5229 11.7773C28.8441 14.1487 29.9447 16.2633 31.4673 17.4338C32.4741 18.208 33.5973 18.5361 34.7159 18.3821L34.728 18.3803C35.2328 18.3066 35.7181 18.1379 36.1587 17.8829C38.2428 16.6796 39.3431 13.6672 38.9004 10.38C38.5706 8.01662 37.4664 5.90624 35.9426 4.73536ZM34.224 20.8082C32.6136 20.7686 31.0911 20.7306 29.6427 19.9197C25.6404 17.6712 23.224 16.3143 20.0129 18.1682C16.8018 20.0222 16.7657 22.795 16.7073 27.388C16.6847 29.0502 15.9545 30.3898 15.1816 31.8095C14.295 33.4366 13.379 35.1176 13.7499 37.1708C13.8663 37.9209 14.124 38.6436 14.5091 39.2996C16.1076 42.0683 19.5303 43.0958 22.1374 41.5906C23.4826 40.814 24.6408 39.5138 25.8663 38.1377C27.0446 36.8146 28.2628 35.4469 29.5648 34.6952C30.8669 33.9434 32.6567 33.5745 34.3863 33.2187C36.186 32.844 37.8843 32.495 39.2333 31.7162C41.8366 30.2132 42.6543 26.7375 41.0557 23.9688C40.6773 23.3083 40.1777 22.7253 39.5841 22.2513C37.9906 20.9019 36.0756 20.8544 34.224 20.8082ZM10.4165 20.0993C11.9822 20.7284 13.4921 20.7008 14.6683 20.0217C14.8289 19.9289 14.9822 19.8243 15.1271 19.7085C17.3687 17.9255 17.141 14.0009 14.6055 10.7679C13.5405 9.40806 12.1833 8.35251 10.7895 7.79356C9.22659 7.16586 7.71562 7.19515 6.54015 7.87381C6.37961 7.96655 6.22624 8.07123 6.08132 8.18698C3.83972 9.96996 4.06744 13.8946 6.60297 17.1276C7.66587 18.4856 9.02217 19.5396 10.4165 20.0993ZM23.7904 14.7067C23.9631 14.6391 24.1305 14.5586 24.2911 14.466C25.4681 13.7864 26.2462 12.4931 26.4842 10.8226C26.6959 9.33565 26.4582 7.6358 25.8158 6.03305C24.2846 2.22225 20.9996 0.0627148 18.3338 1.11097C18.1611 1.1786 17.9937 1.25908 17.8331 1.35174C16.6586 2.03194 15.8777 3.32583 15.6399 4.99317C15.427 6.47975 15.6626 8.18289 16.3093 9.7862C17.8405 13.597 21.1255 15.7565 23.7904 14.7067ZM12.839 31.0179L12.8474 31.0079C13.5385 30.117 13.8157 28.9815 13.6483 27.7237C13.3941 25.8167 12.1152 23.8082 10.2236 22.3434C7.60535 20.3165 4.44667 19.7619 2.36478 20.9639C1.92353 21.2178 1.53475 21.5537 1.21867 21.9542L1.21029 21.9642C0.519622 22.8507 0.244295 23.9893 0.411679 25.2471C0.665873 27.1541 1.94473 29.1626 3.83631 30.6274C6.4546 32.6543 9.61328 33.2089 11.6952 32.0069C12.1355 31.7532 12.5235 31.4177 12.839 31.0179Z" fill="#81660B"/>
</svg>
