<svg width="48" height="43" viewBox="0 0 48 43" fill="none" xmlns="http://www.w3.org/2000/svg">
<path d="M47.4418 14.1046C46.8867 12.7731 45.9646 11.8131 44.7744 11.3296L44.7584 11.3235C44.2167 11.1095 43.64 10.9999 43.0582 11.0005H42.9942C40.2698 11.0419 37.4884 13.3788 36.0742 16.8161C35.0371 19.3296 34.9181 22.033 35.7562 24.0479C36.3103 25.3804 37.2344 26.3404 38.4296 26.8239L38.4426 26.829C38.9843 27.0431 39.561 27.1526 40.1428 27.152C42.8932 27.152 45.7036 24.8151 47.1438 21.3324C48.1679 18.8219 48.2809 16.1205 47.4418 14.1046ZM36.5563 28.9297C34.9851 27.9768 33.4999 27.0753 32.5297 25.4561C29.8534 20.9741 28.2372 18.2687 23.9996 18.2687C19.762 18.2687 18.1418 20.9741 15.4594 25.4561C14.4873 27.0773 12.999 27.9798 11.4228 28.9368C9.61558 30.033 7.74832 31.1657 6.94221 33.3946C6.62876 34.1981 6.47089 35.0548 6.47715 35.9183C6.47715 39.5473 9.27753 42.5 12.718 42.5C14.4933 42.5 16.3825 41.8792 18.3818 41.222C20.3041 40.5901 22.2913 39.937 24.0096 39.937C25.7278 39.937 27.7101 40.5901 29.6253 41.222C31.6206 41.8751 33.5009 42.496 35.2811 42.496C38.7166 42.496 41.512 39.5433 41.512 35.9142C41.5148 35.0501 41.3535 34.1934 41.0369 33.3905C40.2308 31.1596 38.3625 30.026 36.5563 28.9297ZM13.3981 14.7204C14.5883 16.2275 16.0985 17.0573 17.6507 17.0573C17.8626 17.0573 18.0742 17.0414 18.2838 17.0099C21.5212 16.5294 23.5385 12.542 22.8764 7.92465C22.5994 5.98344 21.8593 4.17548 20.7991 2.8349C19.611 1.33079 18.0988 0.502019 16.5475 0.502019C16.3356 0.50207 16.124 0.517928 15.9144 0.549464C12.677 1.02997 10.6597 5.01738 11.3218 9.63469C11.5979 11.5729 12.338 13.3788 13.3981 14.7204ZM29.7164 17.0099C29.9259 17.0414 30.1375 17.0573 30.3494 17.0573C31.9027 17.0573 33.4119 16.2275 34.602 14.7204C35.6612 13.3788 36.3973 11.5729 36.6773 9.63267C37.3394 5.01738 35.3221 1.02997 32.0847 0.547445C31.8751 0.515909 31.6635 0.500051 31.4516 0.5C29.9004 0.502019 28.3882 1.33079 27.2 2.8349C26.1399 4.17548 25.3998 5.98344 25.1237 7.92667C24.4616 12.542 26.4789 16.5294 29.7164 17.0099ZM9.55657 26.829L9.57057 26.8239C10.7637 26.3404 11.6869 25.3814 12.2399 24.0499C13.0781 22.031 12.96 19.3306 11.9249 16.8171C10.4917 13.3384 7.68231 11.0005 4.93493 11.0005C4.35314 10.9997 3.77637 11.1092 3.2347 11.3235L3.2207 11.3286C2.03053 11.8081 1.1074 12.7711 0.554329 14.1026C-0.283787 16.1215 -0.165771 18.8219 0.869372 21.3355C2.30257 24.8141 5.11196 27.152 7.85934 27.152C8.44012 27.1525 9.01584 27.0429 9.55657 26.829Z" fill="#FFC609"/>
</svg>
