<svg width="49" height="43" viewBox="0 0 49 43" fill="none" xmlns="http://www.w3.org/2000/svg">
<path d="M47.9418 14.1046C47.3867 12.7731 46.4646 11.8131 45.2744 11.3296L45.2584 11.3235C44.7167 11.1095 44.14 10.9999 43.5582 11.0005H43.4942C40.7698 11.0419 37.9884 13.3788 36.5742 16.8161C35.5371 19.3296 35.4181 22.033 36.2562 24.0479C36.8103 25.3804 37.7344 26.3404 38.9296 26.8239L38.9426 26.829C39.4843 27.0431 40.061 27.1526 40.6428 27.152C43.3932 27.152 46.2036 24.8151 47.6438 21.3324C48.6679 18.8219 48.7809 16.1205 47.9418 14.1046ZM37.0563 28.9297C35.4851 27.9768 33.9999 27.0753 33.0297 25.4561C30.3534 20.9741 28.7372 18.2687 24.4996 18.2687C20.262 18.2687 18.6418 20.9741 15.9594 25.4561C14.9873 27.0773 13.499 27.9798 11.9228 28.9368C10.1156 30.033 8.24832 31.1657 7.44221 33.3946C7.12876 34.1981 6.97089 35.0548 6.97715 35.9183C6.97715 39.5473 9.77753 42.5 13.218 42.5C14.9933 42.5 16.8825 41.8792 18.8818 41.222C20.8041 40.5901 22.7913 39.937 24.5096 39.937C26.2278 39.937 28.2101 40.5901 30.1253 41.222C32.1206 41.8751 34.0009 42.496 35.7811 42.496C39.2166 42.496 42.012 39.5433 42.012 35.9142C42.0148 35.0501 41.8535 34.1934 41.5369 33.3905C40.7308 31.1596 38.8625 30.026 37.0563 28.9297ZM13.8981 14.7204C15.0883 16.2275 16.5985 17.0573 18.1507 17.0573C18.3626 17.0573 18.5742 17.0414 18.7838 17.0099C22.0212 16.5294 24.0385 12.542 23.3764 7.92465C23.0994 5.98344 22.3593 4.17548 21.2991 2.8349C20.111 1.33079 18.5988 0.502019 17.0475 0.502019C16.8356 0.50207 16.624 0.517928 16.4144 0.549464C13.177 1.02997 11.1597 5.01738 11.8218 9.63469C12.0979 11.5729 12.838 13.3788 13.8981 14.7204ZM30.2164 17.0099C30.4259 17.0414 30.6375 17.0573 30.8494 17.0573C32.4027 17.0573 33.9119 16.2275 35.102 14.7204C36.1612 13.3788 36.8973 11.5729 37.1773 9.63267C37.8394 5.01738 35.8221 1.02997 32.5847 0.547445C32.3751 0.515909 32.1635 0.500051 31.9516 0.5C30.4004 0.502019 28.8882 1.33079 27.7 2.8349C26.6399 4.17548 25.8998 5.98344 25.6237 7.92667C24.9616 12.542 26.9789 16.5294 30.2164 17.0099ZM10.0566 26.829L10.0706 26.8239C11.2637 26.3404 12.1869 25.3814 12.7399 24.0499C13.5781 22.031 13.46 19.3306 12.4249 16.8171C10.9917 13.3384 8.18231 11.0005 5.43493 11.0005C4.85314 10.9997 4.27637 11.1092 3.7347 11.3235L3.7207 11.3286C2.53053 11.8081 1.6074 12.7711 1.05433 14.1026C0.216213 16.1215 0.334229 18.8219 1.36937 21.3355C2.80257 24.8141 5.61196 27.152 8.35934 27.152C8.94012 27.1525 9.51584 27.0429 10.0566 26.829Z" fill="#C0C0C0"/>
</svg>
