<svg width="28" height="32" viewBox="0 0 28 32" fill="none" xmlns="http://www.w3.org/2000/svg">
<path d="M0.109328 6.52915C0.109328 6.52915 -0.075611 7.74267 0.0355795 7.92661C0.14677 8.11054 1.06863 9.17771 1.21613 9.17771C1.36363 9.17771 2.3235 9.28818 2.3235 9.28818L2.95093 8.03764L2.21287 6.78711L0.847384 6.2353L0.109328 6.52915ZM2.98497 1.98347L2.91292 3.40337L3.81322 4.5109H4.78614L5.2899 3.7903L5.07376 2.24199L3.62034 1.18829L2.98497 1.98347ZM8.31474 0.227676L7.97833 1.29596L8.01464 2.32499L8.55924 3.25813L9.48621 3.43421L10.0836 2.50444V1.04866C10.0836 1.04866 9.10555 0 8.91664 0C8.72773 0 8.3153 0.227115 8.3153 0.227115M13.1209 2.39116L12.4169 3.57104C12.4169 3.57104 12.561 5.32852 12.7028 5.46871C12.8446 5.60891 14.0938 6.01267 14.0938 6.01267L15.0639 4.92644L15.0457 3.05905L14.1948 2.12816L13.1209 2.39116ZM6.1573 7.70959C6.11021 7.84978 5.11914 9.50857 5.11914 9.50857L5.30805 11.5178L4.64602 13.3869L5.0244 15.256L6.77963 16.1779L8.32268 15.6216L9.91452 14.2141L12.1253 14.7905C12.3433 14.8438 12.5716 14.8404 12.7879 14.7809C13.0043 14.7214 13.2014 14.6076 13.3603 14.4507C13.8346 13.9813 14.3105 13.2725 14.2816 13.1856C14.2345 13.0454 14.1142 11.5033 14.1142 11.5033C14.1142 11.5033 12.8423 9.73288 12.4169 9.82653C12.4169 9.82653 11.8184 7.33667 10.0217 6.82243C8.22567 6.3082 7.49726 6.77477 7.49726 6.77477L6.1573 7.70959ZM13.611 18.7564C13.611 18.7564 12.553 20.2133 12.6472 20.3535C12.7414 20.4937 13.24 22.0566 13.24 22.0566C13.24 22.0566 14.5641 22.3128 14.6112 22.1726C14.6583 22.0324 15.1297 20.903 15.1297 20.903L14.7967 19.2179L13.611 18.7564ZM18.3735 15.6749L17.3807 17.3101L18.4144 19.357L20.0283 18.5719L20.2944 17.1542L19.781 15.865L18.3735 15.6749ZM23.7742 17.0639C23.7271 17.2041 22.4552 18.8528 22.4552 18.8528L22.9754 20.6282L24.0862 20.3052L24.9389 19.0996L24.8974 17.6842L23.7742 17.0639ZM26.5829 21.5333L25.5629 22.8641L25.2792 24.1101L25.7756 24.7124L27.0645 24.446C27.0645 24.446 28 23.3278 28 23.1876C28 23.0474 27.9291 21.9539 27.9291 21.9539L26.5829 21.5333ZM16.2098 23.9559C16.0975 24.5094 15.6289 25.6697 15.6289 25.6697C15.6289 25.6697 14.1074 26.6476 14.0127 26.8349C13.9185 27.0217 13.4998 28.3569 13.4998 28.3569L13.9934 29.8222L15.2295 30.6679L17.948 29.954L19.8485 31.7014C19.8485 31.7014 21.4494 32.4209 22.2056 31.6262C22.9618 30.8316 23.2324 29.4841 23.2324 29.4841L22.529 27.6991L22.6997 25.3876C22.6997 25.3876 21.7228 22.7435 20.2093 22.4631C18.6969 22.1827 16.3517 23.2549 16.2098 23.9559Z" fill="black"/>
</svg>
