<svg width="30" height="30" viewBox="0 0 60 60" fill="none" xmlns="http://www.w3.org/2000/svg">
<path d="M48 48C44.67 48 42 50.67 42 54C42 55.5913 42.6321 57.1174 43.7574 58.2426C44.8826 59.3679 46.4087 60 48 60C49.5913 60 51.1174 59.3679 52.2426 58.2426C53.3679 57.1174 54 55.5913 54 54C54 52.4087 53.3679 50.8826 52.2426 49.7574C51.1174 48.6321 49.5913 48 48 48ZM0 0V6H6L16.8 28.77L12.72 36.12C12.27 36.96 12 37.95 12 39C12 40.5913 12.6321 42.1174 13.7574 43.2426C14.8826 44.3679 16.4087 45 18 45H54V39H19.26C19.0611 39 18.8703 38.921 18.7297 38.7803C18.589 38.6397 18.51 38.4489 18.51 38.25C18.51 38.1 18.54 37.98 18.6 37.89L21.3 33H43.65C45.9 33 47.88 31.74 48.9 29.91L59.64 10.5C59.85 10.02 60 9.51 60 9C60 8.20435 59.6839 7.44129 59.1213 6.87868C58.5587 6.31607 57.7957 6 57 6H12.63L9.81 0M18 48C14.67 48 12 50.67 12 54C12 55.5913 12.6321 57.1174 13.7574 58.2426C14.8826 59.3679 16.4087 60 18 60C19.5913 60 21.1174 59.3679 22.2426 58.2426C23.3679 57.1174 24 55.5913 24 54C24 52.4087 23.3679 50.8826 22.2426 49.7574C21.1174 48.6321 19.5913 48 18 48Z" fill="black"/>
</svg>
