<svg width="49" height="42" viewBox="0 0 49 42" fill="none" xmlns="http://www.w3.org/2000/svg">
<path d="M5.91289 3.57524C2.47516 5.63787 0 8.25055 0 9.62564C0 13.8884 3.0252 21.3139 5.63787 23.6516C7.28798 25.0267 8.25054 27.6393 8.25054 30.6645C8.25054 38.5025 11.9633 41.6652 21.4514 41.9403C36.4399 42.4903 41.2527 39.3276 41.2527 28.8769C41.2527 26.8143 42.2153 24.7516 43.3154 24.3391C46.0655 23.239 49.5033 11.0007 47.8532 7.97553C47.1656 6.60044 44.1404 4.26278 41.1152 2.61267C35.2023 -0.412528 31.6271 0.687545 31.6271 5.36285C31.6271 7.15047 30.1145 7.563 24.2016 7.563C20.0763 7.563 17.0511 7.15047 17.3261 6.60043C18.2887 4.95033 15.2635 -5.54515e-07 13.3384 -5.54515e-07C12.3758 0.137509 9.0756 1.65011 5.91289 3.57524ZM14.3009 3.98776C15.126 5.36285 8.25054 22.0015 6.87545 22.0015C5.91289 22.0015 2.75018 12.6508 2.75018 9.90065C2.75018 8.66307 10.4507 3.16271 12.6508 2.88769C13.2009 2.75018 13.8884 3.30022 14.3009 3.98776ZM41.3902 5.63787C46.203 7.97553 46.8906 8.93809 46.203 11.6883C44.9655 16.5011 42.7653 22.0015 42.0778 22.0015C41.1152 22.0015 34.3773 6.73794 34.3773 4.67531C34.3773 2.20014 34.7898 2.20014 41.3902 5.63787ZM34.9273 14.1634C36.8524 16.7761 37.815 20.6264 38.2275 26.6768C38.7776 34.5148 38.5025 35.6148 35.6148 37.6775C31.077 40.8402 26.1267 40.5652 26.1267 37.265C26.1267 35.7524 26.8143 34.1022 27.5018 33.6897C28.3269 33.2772 28.8769 31.6271 28.8769 30.1145C28.8769 27.7768 28.0518 27.3643 24.4766 27.7768C19.3888 28.3269 18.2887 30.3895 21.4514 33.5522C24.3391 36.5774 22.964 39.8776 18.7012 39.8776C13.2009 39.8776 11.0007 36.4399 11.0007 28.0519C11.0007 20.7639 13.7509 12.9259 17.0511 10.5882C17.8762 10.0382 21.5889 9.76315 25.3017 9.90065C30.802 10.3132 32.5896 11.0007 34.9273 14.1634Z" fill="black"/>
<circle cx="17.5315" cy="21.6574" r="3.09395" fill="black"/>
<circle cx="30.9397" cy="21.6574" r="3.09395" fill="black"/>
</svg>
