<svg width="64" height="64" viewBox="0 0 64 64" fill="none" xmlns="http://www.w3.org/2000/svg">
<path d="M38.8384 2.3618C36.4608 4.73938 35.2288 8.88336 36.1248 12.1281C36.6016 13.8433 36.6784 15.9201 35.4208 17.1809L17.1809 35.4208C15.9201 36.6784 13.8433 36.6016 12.1249 36.1248C8.88336 35.2288 4.73938 36.4608 2.3618 38.8384C1.61317 39.5868 1.01928 40.4753 0.614037 41.4533C0.208799 42.4312 0.000148652 43.4794 7.9509e-08 44.538C-0.000299977 46.6759 0.84869 48.7263 2.3602 50.2383C3.87171 51.7502 5.92193 52.5998 8.05983 52.6001C10.1977 52.6004 12.2482 51.7514 13.7601 50.2399C12.2486 51.7518 11.3996 53.8023 11.3999 55.9402C11.4002 58.0781 12.2498 60.1283 13.7617 61.6398C15.2737 63.1513 17.3241 64.0003 19.462 64C21.5999 63.9997 23.6501 63.1501 25.1616 61.6382C27.5392 59.2606 28.7712 55.1166 27.8752 51.8719C27.3984 50.1567 27.3216 48.0799 28.5792 46.8191L46.8191 28.5792C48.0799 27.3216 50.1567 27.3984 51.8751 27.8752C55.1166 28.7712 59.2606 27.5392 61.6382 25.1616C63.1501 23.6501 63.9997 21.5999 64 19.462C64.0003 17.3241 63.1513 15.2737 61.6398 13.7617C60.8914 13.0131 60.0028 12.4192 59.0249 12.014C58.0469 11.6087 56.9987 11.4001 55.9402 11.3999C53.8023 11.3996 51.7518 12.2486 50.2399 13.7601C51.7514 12.2482 52.6004 10.1977 52.6001 8.05983C52.5998 5.92193 51.7502 3.87171 50.2383 2.3602C48.7263 0.848689 46.6759 -0.000299961 44.538 7.95006e-08C42.4001 0.00030012 40.3499 0.849865 38.8384 2.3618Z" fill="black"/>
</svg>
