<svg width="53" height="53" viewBox="0 0 53 53" fill="none" xmlns="http://www.w3.org/2000/svg">
<path d="M2.625 21.375C2.625 31.7306 11.0194 40.125 21.375 40.125C31.7306 40.125 40.125 31.7306 40.125 21.375C40.125 11.0194 31.7306 2.625 21.375 2.625C11.0194 2.625 2.625 11.0194 2.625 21.375Z" fill="#00A6ED"/>
<path d="M31.4016 11.4973C32.4366 13.2916 32.1873 15.3748 30.841 16.151C29.4966 16.9273 27.5654 16.1041 26.5304 14.3098C25.4954 12.5154 25.7466 10.4323 27.091 9.65602C28.4373 8.87977 30.3666 9.70289 31.4035 11.4973" fill="white"/>
<path d="M0.75 21.375C0.75 32.7656 9.98438 42 21.375 42C25.6781 42 29.6738 40.6819 32.9813 38.4281C32.7177 39.5872 32.7523 40.7942 33.0819 41.9363C33.4114 43.0783 34.0251 44.1182 34.8656 44.9587L40.8319 50.925C42.1552 52.2204 43.9361 52.9415 45.7879 52.9316C47.6397 52.9218 49.4129 52.1818 50.7223 50.8723C52.0318 49.5629 52.7718 47.7897 52.7816 45.9379C52.7915 44.0861 52.0704 42.3052 50.775 40.9819L44.8088 35.0156C43.975 34.1816 42.9449 33.5707 41.8131 33.2391C40.6814 32.9075 39.4845 32.8659 38.3325 33.1181C40.7266 29.6706 42.0066 25.5722 42 21.375C42 9.98438 32.7656 0.75 21.375 0.75C9.98438 0.75 0.75 9.98438 0.75 21.375ZM38.25 21.375C38.25 23.5911 37.8135 25.7854 36.9655 27.8328C36.1174 29.8802 34.8744 31.7404 33.3074 33.3074C31.7404 34.8744 29.8802 36.1174 27.8328 36.9655C25.7854 37.8135 23.5911 38.25 21.375 38.25C19.1589 38.25 16.9646 37.8135 14.9172 36.9655C12.8698 36.1174 11.0096 34.8744 9.44257 33.3074C7.87558 31.7404 6.63258 29.8802 5.78453 27.8328C4.93648 25.7854 4.5 23.5911 4.5 21.375C4.5 16.8995 6.2779 12.6073 9.44257 9.44257C12.6072 6.2779 16.8995 4.5 21.375 4.5C25.8505 4.5 30.1427 6.2779 33.3074 9.44257C36.4721 12.6073 38.25 16.8995 38.25 21.375Z" fill="#533566"/>
</svg>
