<svg width="54" height="69" viewBox="0 0 54 69" fill="none" xmlns="http://www.w3.org/2000/svg">
<path d="M21.2143 55.5833H32.7857V46H42.4286V34.5H32.7857V24.9167H21.2143V34.5H11.5714V46H21.2143V55.5833ZM7.71428 69C5.59286 69 3.77743 68.2499 2.268 66.7498C0.758571 65.2497 0.00257143 63.4442 0 61.3333V19.1667C0 17.0583 0.755999 15.2541 2.268 13.754C3.78 12.2539 5.59543 11.5026 7.71428 11.5H46.2857C48.4071 11.5 50.2239 12.2513 51.7359 13.754C53.2479 15.2567 54.0026 17.0609 54 19.1667V61.3333C54 63.4417 53.2453 65.2472 51.7359 66.7498C50.2264 68.2525 48.4097 69.0025 46.2857 69H7.71428ZM3.85714 7.66667V0H50.1429V7.66667H3.85714Z" fill="black"/>
</svg>
