<svg width="30" height="30" viewBox="0 0 60 60" fill="none" xmlns="http://www.w3.org/2000/svg">
<path fill-rule="evenodd" clip-rule="evenodd" d="M30 6C25.8023 5.99923 21.6778 7.09946 18.0382 9.19088C14.3985 11.2823 11.3711 14.2918 9.25807 17.9189C7.14502 21.546 6.02025 25.6638 5.99603 29.8615C5.9718 34.0592 7.04897 38.1897 9.12002 41.841C10.5199 40.0217 12.3193 38.5487 14.3793 37.5359C16.4392 36.5231 18.7045 35.9976 21 36H39C41.2955 35.9976 43.5608 36.5231 45.6207 37.5359C47.6807 38.5487 49.4801 40.0217 50.88 41.841C52.951 38.1897 54.0282 34.0592 54.004 29.8615C53.9798 25.6638 52.855 21.546 50.7419 17.9189C48.6289 14.2918 45.6015 11.2823 41.9618 9.19088C38.3222 7.09946 34.1977 5.99923 30 6ZM53.829 48.228C54.205 47.738 54.565 47.236 54.909 46.722C58.2349 41.7801 60.0078 35.9569 60 30C60 13.431 46.569 0 30 0C13.431 0 3.07663e-05 13.431 3.07663e-05 30C-0.0094232 36.5903 2.16015 42.9988 6.17103 48.228L6.15602 48.282L7.22102 49.521C10.0347 52.8105 13.5282 55.4508 17.4607 57.2599C21.3932 59.069 25.6713 60.0038 30 60C30.648 60 31.292 59.98 31.932 59.94C37.3452 59.5986 42.563 57.7888 47.025 54.705C49.1589 53.2329 51.093 51.4903 52.779 49.521L53.844 48.282L53.829 48.228ZM30 12C27.6131 12 25.3239 12.9482 23.636 14.636C21.9482 16.3239 21 18.613 21 21C21 23.3869 21.9482 25.6761 23.636 27.364C25.3239 29.0518 27.6131 30 30 30C32.3869 30 34.6761 29.0518 36.364 27.364C38.0518 25.6761 39 23.3869 39 21C39 18.613 38.0518 16.3239 36.364 14.636C34.6761 12.9482 32.3869 12 30 12Z" fill="black"/>
</svg>
