<svg width="64" height="56" viewBox="0 0 64 56" fill="none" xmlns="http://www.w3.org/2000/svg">
<path d="M59.9936 0.000674471C57.1176 -0.0438347 53.3759 2.12018 49.5969 4.82514C42.0837 6.87761 22.8887 6.70858 15.147 4.81449C10.4968 3.68742 8.1848 0.437847 5.90532 0.442762C4.01344 0.460921 1.76511 1.33663 1.21294 3.15905C1.03322 4.90815 1.52959 5.59039 2.4374 6.79842C1.55518 8.21015 0.625024 10.3 1.00762 11.8037C1.28879 12.8235 2.01214 13.5634 3.18811 13.995C5.54005 14.8585 11.8599 13.2329 13.3814 10.7487L50.6915 9.84348C54.2882 13.5921 59.603 13.2916 61.7326 11.9151C62.7972 11.2269 63.4261 10.3631 63.4588 9.57069C63.5293 7.859 62.6305 7.39028 61.4709 6.37012C62.4973 5.44103 64.5324 3.6821 63.8701 2.45468C62.9478 0.745315 61.6071 0.0255231 59.9936 0.000674471ZM31.4829 27.465C24.377 27.465 17.9406 28.1291 13.3653 29.1741C11.0775 29.6966 9.25161 30.3242 8.09866 30.9468C7.52226 31.2581 7.1207 31.5697 6.91254 31.802C6.70437 32.0344 6.69855 32.1318 6.69855 32.1753C6.69855 32.219 6.70437 32.3164 6.91254 32.5486C7.1207 32.7808 7.52226 33.0925 8.09866 33.4038C9.25161 34.0264 11.0775 34.654 13.3653 35.1765C14.0183 35.3258 14.7133 35.4661 15.4388 35.599C16.0266 35.0835 17.9672 34.6132 20.9098 34.2733C23.8524 33.9333 27.6028 33.7461 31.4829 33.7454C35.363 33.7458 39.1141 33.9328 42.058 34.2725C45.0018 34.6123 46.9442 35.0824 47.534 35.5979C48.2569 35.4655 48.9495 35.3254 49.6007 35.1765C51.8882 34.654 53.7142 34.0264 54.8672 33.4038C55.4436 33.0925 55.8452 32.781 56.0533 32.5486C56.2615 32.3162 56.2673 32.2189 56.2673 32.1753C56.2673 32.1316 56.2615 32.0343 56.0533 31.802C55.8452 31.5698 55.4436 31.2581 54.8672 30.9468C53.7142 30.3242 51.8883 29.6966 49.6006 29.1741C45.0252 28.1291 38.5889 27.465 31.4829 27.465ZM5.61793 34.6891L0.115523 49.4809L0.110376 49.4932C-0.0498421 49.8972 -0.0288497 50.0864 0.129472 50.4011C0.287794 50.7158 0.680688 51.1473 1.36138 51.5851C2.72249 52.461 5.13483 53.3135 8.1764 53.98C14.2594 55.3132 22.8788 56 31.4829 56C40.0872 56 48.7064 55.3132 54.7895 53.98C57.8309 53.3135 60.2434 52.461 61.6045 51.5853C62.285 51.1473 62.6781 50.716 62.8364 50.4011C62.9947 50.0863 63.0157 49.8972 62.8553 49.4932L62.8503 49.4809L57.3481 34.6891C56.9622 35.0133 56.5184 35.3002 56.0184 35.5702C54.5396 36.3687 52.5575 37.0211 50.1395 37.5734C45.3035 38.6779 38.7381 39.3432 31.4829 39.3432C24.2277 39.3432 17.6623 38.6779 12.8264 37.5734C10.4084 37.0211 8.42614 36.3687 6.94748 35.5702C6.44759 35.3002 6.00378 35.0131 5.61793 34.6891Z" fill="black"/>
</svg>
