<svg width="56" height="55" viewBox="0 0 56 55" fill="none" xmlns="http://www.w3.org/2000/svg">
<path d="M45.5539 3.52719C44.1454 2.606 42.6262 2.28394 41.1606 2.59742L41.1412 2.60207C40.478 2.75058 39.8496 3.02287 39.2885 3.4048L39.2268 3.44676C36.6246 5.27252 35.4721 9.35109 36.3603 13.5954C37.007 16.7011 38.6642 19.3882 40.7938 20.7834C42.202 21.7062 43.7232 22.027 45.1936 21.7102L45.2094 21.7066C45.8726 21.558 46.501 21.2858 47.0621 20.9038C49.7165 19.101 50.897 15.0034 50.0041 10.6982C49.3468 7.6039 47.6852 4.92272 45.5539 3.52719ZM44.766 24.9704C42.6249 25.0806 40.6007 25.1842 38.603 24.2574C33.082 21.6861 29.7489 20.1345 25.6591 22.9122C21.5694 25.69 21.7791 29.363 22.1282 35.4469C22.2527 37.6488 21.408 39.4953 20.5141 41.4521C19.4885 43.6948 18.4288 46.0119 19.1119 48.6914C19.336 49.6723 19.7452 50.6026 20.3173 51.4319C22.6961 54.9343 27.3343 55.9483 30.6547 53.6931C32.368 52.5295 33.7844 50.6919 35.2831 48.7471C36.7241 46.8772 38.2139 44.9442 39.8722 43.8179C41.5305 42.6916 43.8717 42.0226 46.1344 41.377C48.4882 40.6995 50.7098 40.0662 52.4279 38.8992C55.7435 36.6473 56.5059 31.9652 54.1271 28.4628C53.5634 27.627 52.8462 26.9059 52.0143 26.3386C49.774 24.7139 47.2278 24.8445 44.766 24.9704ZM13.1017 26.437C15.2382 27.1114 17.2397 26.9223 18.7377 25.9048C18.9422 25.7659 19.136 25.6118 19.3176 25.444C22.1271 22.8582 21.4603 17.6876 17.7947 13.6653C16.2549 11.9735 14.3555 10.7137 12.4536 10.1148C10.3209 9.44203 8.31821 9.63342 6.82112 10.6502C6.61665 10.7892 6.42282 10.9432 6.24122 11.111C3.4317 13.6969 4.09853 18.8675 7.76415 22.8897C9.30103 24.5793 11.1991 25.8371 13.1017 26.437ZM30.3513 17.95C30.5742 17.8431 30.7889 17.7197 30.9934 17.5808C32.4924 16.5627 33.4051 14.7726 33.5658 12.5379C33.7086 10.5488 33.2352 8.3234 32.2337 6.26733C29.8474 1.37907 25.2867 -1.1469 21.8459 0.509543C21.623 0.616489 21.4084 0.739889 21.2038 0.878739C19.7081 1.8975 18.7919 3.68861 18.6311 5.91907C18.4867 7.9078 18.9575 10.1378 19.9649 12.1942C22.3512 17.0824 26.9118 19.6084 30.3513 17.95ZM17.3313 40.6412L17.3415 40.6271C18.1761 39.3784 18.4384 37.8477 18.0994 36.2001C17.5848 33.7023 15.7009 31.1735 13.0542 29.4262C9.39079 27.0084 5.14692 26.5935 2.49539 28.3944C1.93334 28.775 1.44853 29.2588 1.06623 29.8207L1.05602 29.8347C0.221692 31.0777 -0.0379631 32.6122 0.301044 34.2598C0.815576 36.7576 2.69953 39.2864 5.3462 41.0337C9.00962 43.4516 13.2535 43.8664 15.905 42.0655C16.4658 41.6852 16.9496 41.2021 17.3313 40.6412Z" fill="#A66F00"/>
</svg>
