<svg width="24" height="22" viewBox="0 0 24 22" fill="none" xmlns="http://www.w3.org/2000/svg">
<path d="M23.967 11.1064L22.208 1.67917C22.165 1.44938 22.0755 1.23081 21.9449 1.0369C21.8143 0.842992 21.6454 0.677845 21.4487 0.551616C21.2519 0.425387 21.0314 0.340743 20.8007 0.302891C20.57 0.265039 20.334 0.274778 20.1072 0.331509L20.074 0.34115L14.4477 2.00055H9.55194L3.92561 0.346507L3.8924 0.336865C3.66561 0.280134 3.42961 0.270395 3.19892 0.308247C2.96823 0.3461 2.74772 0.430743 2.55095 0.556972C2.35418 0.683201 2.18531 0.848348 2.05473 1.04226C1.92415 1.23616 1.83462 1.45474 1.79163 1.68453L0.0326022 11.1064C-0.0426194 11.4837 0.0132166 11.8754 0.190874 12.2167C0.368532 12.558 0.657367 12.8284 1.0096 12.9833C1.23522 13.0866 1.48028 13.1406 1.72843 13.1418C2.02545 13.1416 2.31696 13.0617 2.57259 12.9104V17.4269C2.57259 18.5634 3.02406 19.6533 3.82767 20.4569C4.63128 21.2605 5.72121 21.712 6.85769 21.712H17.1419C18.2784 21.712 19.3683 21.2605 20.1719 20.4569C20.9755 19.6533 21.427 18.5634 21.427 17.4269V12.9115C21.6823 13.0625 21.9734 13.1424 22.2701 13.1429C22.5185 13.1422 22.764 13.0885 22.99 12.9854C23.3427 12.8305 23.6318 12.5597 23.8095 12.218C23.9872 11.8762 24.0428 11.484 23.967 11.1064ZM17.1419 19.998H12.8568V18.6385L14.3202 17.1762C14.481 17.0154 14.5713 16.7973 14.5713 16.5699C14.5713 16.3425 14.481 16.1243 14.3202 15.9635C14.1594 15.8027 13.9413 15.7124 13.7138 15.7124C13.4864 15.7124 13.2683 15.8027 13.1075 15.9635L11.9998 17.0723L10.8921 15.9635C10.7313 15.8027 10.5132 15.7124 10.2858 15.7124C10.0583 15.7124 9.84023 15.8027 9.67942 15.9635C9.51861 16.1243 9.42827 16.3425 9.42827 16.5699C9.42827 16.7973 9.51861 17.0154 9.67942 17.1762L11.1428 18.6385V19.998H6.85769C6.1758 19.998 5.52184 19.7271 5.03968 19.2449C4.55751 18.7627 4.28663 18.1088 4.28663 17.4269V10.9039L9.84976 3.71459H14.1498L19.713 10.9039V17.4269C19.713 18.1088 19.4421 18.7627 18.9599 19.2449C18.4778 19.7271 17.8238 19.998 17.1419 19.998ZM9.42874 12.7133C9.42874 12.9675 9.35335 13.2161 9.21209 13.4275C9.07084 13.6389 8.87007 13.8037 8.63517 13.901C8.40027 13.9983 8.14179 14.0237 7.89242 13.9741C7.64305 13.9245 7.41399 13.8021 7.23421 13.6223C7.05443 13.4425 6.93199 13.2135 6.88239 12.9641C6.83279 12.7147 6.85824 12.4562 6.95554 12.2213C7.05284 11.9864 7.21761 11.7857 7.42902 11.6444C7.64042 11.5032 7.88896 11.4278 8.14322 11.4278C8.48416 11.4278 8.81114 11.5632 9.05222 11.8043C9.29331 12.0454 9.42874 12.3723 9.42874 12.7133ZM17.1419 12.7133C17.1419 12.9675 17.0665 13.2161 16.9253 13.4275C16.784 13.6389 16.5832 13.8037 16.3483 13.901C16.1134 13.9983 15.855 14.0237 15.6056 13.9741C15.3562 13.9245 15.1272 13.8021 14.9474 13.6223C14.7676 13.4425 14.6452 13.2135 14.5956 12.9641C14.546 12.7147 14.5714 12.4562 14.6687 12.2213C14.766 11.9864 14.9308 11.7857 15.1422 11.6444C15.3536 11.5032 15.6021 11.4278 15.8564 11.4278C16.1973 11.4278 16.5243 11.5632 16.7654 11.8043C17.0065 12.0454 17.1419 12.3723 17.1419 12.7133Z" fill="black"/>
</svg>
