<svg width="86" height="90" viewBox="0 0 86 90" fill="none" xmlns="http://www.w3.org/2000/svg">
<path d="M69.728 23.9092V52.5455L60.1825 75.4546L52.5462 79.2728L43.0007 75.4546L33.4553 79.2728L25.8189 75.4546L16.2734 52.5455V23.9092" stroke="#81660B" stroke-miterlimit="10" stroke-linecap="round" stroke-linejoin="round"/>
<path d="M69.7273 43L79.2727 52.5455L85 23.9091L77.3636 4.81818L69.7273 10.5455L44.9091 1L20.0909 10.5455L10.5455 4.81818L1 23.9091L6.72727 52.5455L16.2727 43M43 75.4546V65.9091M31.5455 31.5455V35.3636M54.4545 31.5455V35.3636M35.3636 65.9091H50.6364M50.8616 78.5969L48.7235 85L42.9962 88.8182L37.2689 85L35.1384 78.5969" stroke="#81660B" stroke-miterlimit="10" stroke-linecap="round" stroke-linejoin="round"/>
</svg>
