<svg width="86" height="86" viewBox="0 0 86 86" fill="none" xmlns="http://www.w3.org/2000/svg">
<path d="M26.8472 83.1262C29.9276 84.3677 33.2184 85.0039 36.5395 85H49.4626C52.7837 85.0039 56.0745 84.3677 59.1549 83.1262M10.6934 46.2308V1L37.5281 20.7465M75.3087 46.2308V1L48.558 20.7465M30.078 44.6154C29.6495 44.6154 29.2387 44.4452 28.9357 44.1423C28.6328 43.8393 28.4626 43.4284 28.4626 43C28.4626 42.5716 28.6328 42.1607 28.9357 41.8578C29.2387 41.5548 29.6495 41.3846 30.078 41.3846C30.5064 41.3846 30.9173 41.5548 31.2202 41.8578C31.5232 42.1607 31.6934 42.5716 31.6934 43C31.6934 43.4284 31.5232 43.8393 31.2202 44.1423C30.9173 44.4452 30.5064 44.6154 30.078 44.6154ZM55.9241 44.6154C55.4957 44.6154 55.0848 44.4452 54.7819 44.1423C54.4789 43.8393 54.3087 43.4284 54.3087 43C54.3087 42.5716 54.4789 42.1607 54.7819 41.8578C55.0848 41.5548 55.4957 41.3846 55.9241 41.3846C56.3526 41.3846 56.7634 41.5548 57.0664 41.8578C57.3693 42.1607 57.5395 42.5716 57.5395 43C57.5395 43.4284 57.3693 43.8393 57.0664 44.1423C56.7634 44.4452 56.3526 44.6154 55.9241 44.6154Z" stroke="#81660B" stroke-width="2" stroke-linecap="round" stroke-linejoin="round"/>
<path d="M23.7382 26.8463C28.468 22.8789 35.3431 20.3848 43 20.3848C50.6569 20.3848 57.5385 22.8789 62.2683 26.8463M1 59.154H23.6154M23.6154 72.0771L4.23077 81.7694M62.3846 59.154H85M62.3846 72.0771L81.7692 81.7694M47.8462 59.154H38.1538L43 62.3848L47.8462 59.154Z" stroke="#81660B" stroke-width="2" stroke-linecap="round" stroke-linejoin="round"/>
</svg>
