<svg width="24" height="17" viewBox="0 0 24 17" fill="none" xmlns="http://www.w3.org/2000/svg">
<path fill-rule="evenodd" clip-rule="evenodd" d="M12.0086 1.69268C10.3553 1.69268 10.19 1.86806 9.33433 1.86806C8.62164 1.86806 6.48132 0.12207 5.41228 0.12207C4.34323 0.12207 3.09434 0.750985 3.09434 2.56623V4.66075C3.09658 5.21035 3.29542 6.89491 4.07737 6.44472C3.15355 7.53723 3.06083 8.81181 3.07312 10.0451C2.82401 10.1166 2.57043 10.1981 2.32356 10.2819C1.55948 10.5433 0.748481 10.8762 0.383197 11.113C0.196549 11.2336 0.0654455 11.4234 0.0187287 11.6406C-0.0279882 11.8578 0.0135081 12.0847 0.134089 12.2714C0.25467 12.458 0.444457 12.5891 0.661701 12.6359C0.878945 12.6826 1.10585 12.6411 1.2925 12.5205C1.46676 12.4077 2.09791 12.1295 2.86534 11.867L3.12004 11.7832C3.17142 12.2669 3.29988 12.7104 3.4909 13.1126L3.46409 13.1271C3.00609 13.3684 2.5816 13.6465 2.31127 13.823L2.18504 13.9057C1.99839 14.0263 1.86729 14.216 1.82057 14.4333C1.77386 14.6505 1.81535 14.8774 1.93593 15.0641C2.05651 15.2507 2.2463 15.3818 2.46355 15.4286C2.68079 15.4753 2.90769 15.4338 3.09434 15.3132L3.24068 15.2171C3.51436 15.0384 3.86513 14.8094 4.24717 14.6083C4.33653 14.5607 4.42255 14.5175 4.50521 14.4787C6.43775 16.2918 9.90851 16.8782 12.0086 16.8782C14.1087 16.8782 17.5795 16.2918 19.512 14.4787C19.5939 14.5175 19.68 14.5607 19.7701 14.6083C20.1521 14.8094 20.5029 15.0384 20.7766 15.2171L20.9229 15.3132C21.1095 15.4338 21.3364 15.4753 21.5537 15.4286C21.7709 15.3818 21.9607 15.2507 22.0813 15.0641C22.2019 14.8774 22.2434 14.6505 22.1967 14.4333C22.1499 14.216 22.0188 14.0263 21.8322 13.9057L21.706 13.823C21.3327 13.5733 20.948 13.3411 20.5531 13.1271L20.5263 13.1126C20.7173 12.7104 20.8458 12.2669 20.8972 11.7832L21.1519 11.867C21.9193 12.1295 22.5505 12.4077 22.7259 12.5205C22.9124 12.6343 23.1361 12.6707 23.3491 12.622C23.5621 12.5732 23.7477 12.4432 23.8662 12.2595C23.9847 12.0759 24.0267 11.8532 23.9833 11.639C23.94 11.4248 23.8146 11.2361 23.634 11.113C23.2688 10.8762 22.4578 10.5433 21.6948 10.2819C21.4463 10.1971 21.1961 10.1177 20.9441 10.0439C20.9575 8.81069 20.8637 7.53723 19.9387 6.44472C20.7207 6.89491 20.9218 5.21036 20.9229 4.65964V2.56623C20.9229 0.750985 19.6751 0.12207 18.605 0.12207C17.5359 0.12207 15.3956 1.86806 14.684 1.86806C13.8272 1.86806 13.6619 1.69268 12.0086 1.69268ZM11.2546 11.9631C11.4802 11.886 11.7472 11.8514 12.0086 11.8514C12.27 11.8514 12.537 11.886 12.7638 11.9631C12.8755 12.0011 13.0095 12.0614 13.1302 12.1575C13.2128 12.2199 13.2804 12.3001 13.328 12.3921C13.3755 12.4841 13.4018 12.5856 13.405 12.6892C13.405 12.9461 13.2497 13.1248 13.1302 13.2209C13.0106 13.317 12.8743 13.3773 12.7638 13.4153C12.537 13.4924 12.27 13.527 12.0086 13.527C11.7472 13.527 11.4802 13.4924 11.2546 13.4153C11.1219 13.3718 10.9976 13.3061 10.8871 13.2209C10.8044 13.1585 10.7368 13.0783 10.6893 12.9863C10.6417 12.8942 10.6154 12.7927 10.6123 12.6892C10.6123 12.4323 10.7675 12.2535 10.8871 12.1575C11.0066 12.0614 11.144 12.0011 11.2546 11.9631ZM14.4327 8.50015C14.5857 8.24545 14.8862 7.94161 15.3375 7.94161C15.7888 7.94161 16.0904 8.24545 16.2423 8.50015C16.401 8.76713 16.4769 9.08885 16.4769 9.40833C16.4769 9.72781 16.401 10.0484 16.2423 10.3143C16.0904 10.5701 15.7888 10.8739 15.3375 10.8739C14.8862 10.8739 14.5857 10.5701 14.4327 10.3154C14.2752 10.0393 14.1942 9.72617 14.1981 9.40833C14.1981 9.08885 14.274 8.76713 14.4327 8.50126M7.77489 8.50126C7.92793 8.24657 8.22843 7.94273 8.67973 7.94273C9.13103 7.94273 9.43264 8.24657 9.58456 8.50126C9.74318 8.76824 9.81915 9.08996 9.81915 9.40945C9.81915 9.72893 9.74318 10.0495 9.58456 10.3154C9.43264 10.5712 9.13103 10.8751 8.67973 10.8751C8.22843 10.8751 7.92793 10.5712 7.77489 10.3165C7.61743 10.0404 7.53646 9.72728 7.54031 9.40945C7.54031 9.08996 7.61627 8.76713 7.77489 8.50126Z" fill="black"/>
</svg>
