<svg width="26" height="25" viewBox="0 0 26 25" fill="none" xmlns="http://www.w3.org/2000/svg">
<path d="M9 21.8335V13.8335C9 13.4799 8.85952 13.1407 8.60948 12.8907C8.35943 12.6406 8.02029 12.5002 7.66667 12.5002H2.33333C1.97971 12.5002 1.64057 12.6406 1.39052 12.8907C1.14048 13.1407 1 13.4799 1 13.8335V21.8335C1 22.1871 1.14048 22.5263 1.39052 22.7763C1.64057 23.0264 1.97971 23.1668 2.33333 23.1668M9 21.8335C9 22.1871 8.85952 22.5263 8.60948 22.7763C8.35943 23.0264 8.02029 23.1668 7.66667 23.1668H2.33333M9 21.8335C9 22.1871 9.14048 22.5263 9.39052 22.7763C9.64057 23.0264 9.97971 23.1668 10.3333 23.1668H15.6667C16.0203 23.1668 16.3594 23.0264 16.6095 22.7763C16.8595 22.5263 17 22.1871 17 21.8335M9 21.8335V8.50016C9 8.14654 9.14048 7.8074 9.39052 7.55735C9.64057 7.30731 9.97971 7.16683 10.3333 7.16683H15.6667C16.0203 7.16683 16.3594 7.30731 16.6095 7.55735C16.8595 7.8074 17 8.14654 17 8.50016V21.8335M2.33333 23.1668H21M17 21.8335C17 22.1871 17.1405 22.5263 17.3905 22.7763C17.6406 23.0264 17.9797 23.1668 18.3333 23.1668H23.6667C24.0203 23.1668 24.3594 23.0264 24.6095 22.7763C24.8595 22.5263 25 22.1871 25 21.8335V3.16683C25 2.81321 24.8595 2.47407 24.6095 2.22402C24.3594 1.97397 24.0203 1.8335 23.6667 1.8335H18.3333C17.9797 1.8335 17.6406 1.97397 17.3905 2.22402C17.1405 2.47407 17 2.81321 17 3.16683V21.8335Z" stroke="#111111" stroke-width="2" stroke-linecap="round" stroke-linejoin="round"/>
</svg>
